<?xml version="1.0" encoding="utf-8"?>
<svg version="1.1" xmlns:xlink="http://www.w3.org/1999/xlink" width="603px" height="491px" xmlns="http://www.w3.org/2000/svg">
  <g transform="matrix(1 0 0 1 -715 -17 )">
    <path d="M 716 27  A 9 9 0 0 1 725 18 L 1308 18  A 9 9 0 0 1 1317 27 L 1317 498  A 9 9 0 0 1 1308 507 L 725 507  A 9 9 0 0 1 716 498 L 716 27  Z " fill-rule="nonzero" fill="#ffffff" stroke="none" />
    <path d="M 715.5 27  A 9.5 9.5 0 0 1 725 17.5 L 1308 17.5  A 9.5 9.5 0 0 1 1317.5 27 L 1317.5 498  A 9.5 9.5 0 0 1 1308 507.5 L 725 507.5  A 9.5 9.5 0 0 1 715.5 498 L 715.5 27  Z " stroke-width="1" stroke-dasharray="9,4" stroke="#797979" fill="none" stroke-dashoffset="0.5" />
  </g>
</svg>