<?xml version="1.0" encoding="utf-8"?>
<svg version="1.1" xmlns:xlink="http://www.w3.org/1999/xlink" width="51px" height="81px" xmlns="http://www.w3.org/2000/svg">
  <g transform="matrix(1 0 0 1 -236 -95 )">
    <path d="M 261 95.5  C 266.32 95.5  270.5 99.67999999999999  270.5 105  C 270.5 110.32  266.32 114.5  261 114.5  C 255.68 114.5  251.5 110.32  251.5 105  C 251.5 99.67999999999999  255.68 95.5  261 95.5  Z " fill-rule="nonzero" fill="#ffffff" stroke="none" />
    <path d="M 261 95.5  C 266.32 95.5  270.5 99.67999999999999  270.5 105  C 270.5 110.32  266.32 114.5  261 114.5  C 255.68 114.5  251.5 110.32  251.5 105  C 251.5 99.67999999999999  255.68 95.5  261 95.5  Z " stroke-width="1" stroke="#797979" fill="none" />
    <path d="M 236 125  L 286 125  M 261 115  L 261 150  M 241 175  L 261 150  M 261 150  L 281 175  " stroke-width="1" stroke="#797979" fill="none" />
  </g>
</svg>